<?xml version="1.0" encoding="UTF-8" standalone="no"?>
<svg
   xmlns:dc="http://purl.org/dc/elements/1.1/"
   xmlns:cc="http://creativecommons.org/ns#"
   xmlns:rdf="http://www.w3.org/1999/02/22-rdf-syntax-ns#"
   xmlns:svg="http://www.w3.org/2000/svg"
   xmlns="http://www.w3.org/2000/svg"
   xmlns:sodipodi="http://sodipodi.sourceforge.net/DTD/sodipodi-0.dtd"
   xmlns:inkscape="http://www.inkscape.org/namespaces/inkscape"
   version="1.1"
   x="0px"
   y="0px"
   width="24px"
   height="24px"
   viewBox="0 0 24 24"
   overflow="visible"
   enable-background="new 0 0 24 24"
   xml:space="preserve"
   id="svg2"
   inkscape:version="0.91 r13725"
   sodipodi:docname="icon-alert.svg"><metadata
     id="metadata14"><rdf:RDF><cc:Work
         rdf:about=""><dc:format>image/svg+xml</dc:format><dc:type
           rdf:resource="http://purl.org/dc/dcmitype/StillImage" /></cc:Work></rdf:RDF></metadata><sodipodi:namedview
     pagecolor="#ffffff"
     bordercolor="#666666"
     borderopacity="1"
     objecttolerance="10"
     gridtolerance="10"
     guidetolerance="10"
     inkscape:pageopacity="0"
     inkscape:pageshadow="2"
     inkscape:window-width="1920"
     inkscape:window-height="1010"
     id="namedview12"
     showgrid="false"
     inkscape:zoom="9.8333333"
     inkscape:cx="12.20339"
     inkscape:cy="12"
     inkscape:window-x="0"
     inkscape:window-y="33"
     inkscape:window-maximized="1"
     inkscape:current-layer="svg2" /><style
     id="style4">.style0{fill:  #FFFFFF;}.style1{fill:  #E66000;}</style><defs
     id="defs6" /><circle
     cx="12"
     cy="12"
     r="11.4"
     class="style0"
     id="circle8"
     style="fill:#ffffff;fill-opacity:1" /><path
     d="M6 1.6C7.84 0.6 9.8 0 12 0s4.16 0.6 6 1.6s3.28 2.6 4.4 4.4c1.04 1.8 1.6 3.8 1.6 6s-0.56 4.16-1.6 6 c-1.04 1.84-2.56 3.28-4.4 4.4c-1.84 1.04-3.84 1.6-6 1.6s-4.16-0.56-6-1.6c-1.84-1.04-3.28-2.56-4.4-4.4C0.56 16.2 0 14.2 0 12 s0.56-4.16 1.6-6C2.72 4.2 4.2 2.7 6 1.6z M13.76 13.92L14 5.2c0-0.08-0.08-0.16-0.16-0.24C13.76 4.8 13.7 4.8 13.5 4.8H10.4 c-0.16 0-0.24 0-0.32 0.08S9.92 5 9.9 5.12l0.24 8.72c0 0.1 0.1 0.2 0.2 0.24c0.08 0.1 0.2 0.1 0.3 0.08h2.64 c0.16 0 0.2 0 0.32-0.08C13.68 14.1 13.8 14 13.8 13.92z M13.84 18.72v-2.64c0-0.16-0.08-0.24-0.16-0.32s-0.16-0.16-0.32-0.16 h-2.72c-0.16 0-0.24 0.08-0.32 0.16c-0.08 0.08-0.16 0.24-0.16 0.32v2.64c0 0.2 0.1 0.2 0.2 0.32c0.08 0.1 0.2 0.2 0.3 0.2 h2.72c0.16 0 0.24-0.08 0.32-0.16S13.84 18.9 13.8 18.72z"
     class="style1"
     id="path10"
     style="fill:#0095dd;fill-opacity:1" /></svg>